<?xml version="1.0" encoding="utf-8"?>
<!-- Generator: Adobe Illustrator 23.0.1, SVG Export Plug-In . SVG Version: 6.00 Build 0)  -->
<svg version="1.1" id="Layer_1" xmlns="http://www.w3.org/2000/svg" xmlns:xlink="http://www.w3.org/1999/xlink" x="0px" y="0px"
	 viewBox="0 0 24 24" style="enable-background:new 0 0 24 24;" xml:space="preserve">
<style type="text/css">
	.st0{fill:#FFFFFF;}
</style>
<g id="Mail_icon_1_">
	<g id="Group_1_" transform="translate(-336.000000, 0.000000)">
		<path id="Shape_2_" class="st0" d="M349.6,12.45l4.57,3.92c-0.17,0.16-0.39,0.25-0.64,0.25h-11.06c-0.25,0-0.47-0.1-0.64-0.25
			l4.57-3.92l1.6,1.4L349.6,12.45z M348,12.92l-6.17-5.29c0.17-0.16,0.39-0.25,0.64-0.25h11.06c0.25,0,0.47,0.1,0.64,0.25L348,12.92
			z M354.46,15.86L350,12.07l4.46-3.88V15.86L354.46,15.86z M341.54,15.86V8.2l4.46,3.88L341.54,15.86L341.54,15.86z"/>
	</g>
</g>
</svg>
